<?xml version="1.0" encoding="iso-8859-1"?>
<!-- Generator: Adobe Illustrator 19.0.0, SVG Export Plug-In . SVG Version: 6.00 Build 0)  -->
<svg version="1.1" id="Layer_1" xmlns="http://www.w3.org/2000/svg" xmlns:xlink="http://www.w3.org/1999/xlink" x="0px" y="0px"
	 viewBox="0 0 512 512" style="enable-background:new 0 0 512 512;" xml:space="preserve">
<rect x="70.776" y="35.31" style="fill:#FFAF4B;" width="370.759" height="17.655"/>
<path style="fill:#E15050;" d="M123.741,70.621L123.741,70.621c-9.751,0-17.655-7.904-17.655-17.655V35.31
	c0-9.751,7.904-17.655,17.655-17.655l0,0c9.751,0,17.655,7.904,17.655,17.655v17.655C141.396,62.717,133.492,70.621,123.741,70.621z
	"/>
<path style="fill:#D24146;" d="M119.327,52.966V35.31c0-7.405,4.569-13.725,11.034-16.345c-2.047-0.83-4.276-1.31-6.621-1.31
	c-9.75,0-17.655,7.904-17.655,17.655v17.655c0,9.75,7.905,17.655,17.655,17.655c2.345,0,4.574-0.479,6.621-1.31
	C123.897,66.69,119.327,60.371,119.327,52.966z"/>
<path style="fill:#E15050;" d="M229.672,70.621L229.672,70.621c-9.751,0-17.655-7.904-17.655-17.655V35.31
	c0-9.751,7.904-17.655,17.655-17.655l0,0c9.751,0,17.655,7.904,17.655,17.655v17.655C247.327,62.717,239.423,70.621,229.672,70.621z
	"/>
<path style="fill:#D24146;" d="M225.258,52.966V35.31c0-7.405,4.569-13.725,11.034-16.345c-2.047-0.83-4.276-1.31-6.621-1.31
	c-9.75,0-17.655,7.904-17.655,17.655v17.655c0,9.75,7.905,17.655,17.655,17.655c2.345,0,4.574-0.479,6.621-1.31
	C229.828,66.69,225.258,60.371,225.258,52.966z"/>
<path style="fill:#E15050;" d="M282.638,70.621L282.638,70.621c-9.751,0-17.655-7.904-17.655-17.655V35.31
	c0-9.751,7.904-17.655,17.655-17.655l0,0c9.751,0,17.655,7.904,17.655,17.655v17.655C300.293,62.717,292.389,70.621,282.638,70.621z
	"/>
<path style="fill:#D24146;" d="M278.224,52.966V35.31c0-7.405,4.569-13.725,11.034-16.345c-2.047-0.83-4.276-1.31-6.621-1.31
	c-9.75,0-17.655,7.904-17.655,17.655v17.655c0,9.75,7.905,17.655,17.655,17.655c2.345,0,4.574-0.479,6.621-1.31
	C282.793,66.69,278.224,60.371,278.224,52.966z"/>
<path style="fill:#E15050;" d="M335.603,70.621L335.603,70.621c-9.751,0-17.655-7.904-17.655-17.655V35.31
	c0-9.751,7.904-17.655,17.655-17.655l0,0c9.751,0,17.655,7.904,17.655,17.655v17.655C353.258,62.717,345.354,70.621,335.603,70.621z
	"/>
<path style="fill:#D24146;" d="M331.19,52.966V35.31c0-7.405,4.569-13.725,11.034-16.345c-2.047-0.83-4.276-1.31-6.621-1.31
	c-9.75,0-17.655,7.904-17.655,17.655v17.655c0,9.75,7.905,17.655,17.655,17.655c2.345,0,4.574-0.479,6.621-1.31
	C335.759,66.69,331.19,60.371,331.19,52.966z"/>
<path style="fill:#E15050;" d="M388.569,70.621L388.569,70.621c-9.751,0-17.655-7.904-17.655-17.655V35.31
	c0-9.751,7.904-17.655,17.655-17.655l0,0c9.751,0,17.655,7.904,17.655,17.655v17.655C406.224,62.717,398.32,70.621,388.569,70.621z"
	/>
<path style="fill:#D24146;" d="M384.155,52.966V35.31c0-7.405,4.569-13.725,11.034-16.345c-2.047-0.83-4.276-1.31-6.621-1.31
	c-9.75,0-17.655,7.904-17.655,17.655v17.655c0,9.75,7.905,17.655,17.655,17.655c2.345,0,4.574-0.479,6.621-1.31
	C388.724,66.69,384.155,60.371,384.155,52.966z"/>
<rect x="70.776" y="105.931" style="fill:#FFAF4B;" width="370.759" height="17.655"/>
<path style="fill:#FF6472;" d="M123.741,141.241L123.741,141.241c-9.751,0-17.655-7.904-17.655-17.655v-17.655
	c0-9.751,7.904-17.655,17.655-17.655l0,0c9.751,0,17.655,7.904,17.655,17.655v17.655
	C141.396,133.337,133.492,141.241,123.741,141.241z"/>
<path style="fill:#D25566;" d="M119.327,123.586v-17.655c0-7.405,4.569-13.725,11.034-16.345c-2.047-0.83-4.276-1.31-6.621-1.31
	c-9.75,0-17.655,7.904-17.655,17.655v17.655c0,9.75,7.905,17.655,17.655,17.655c2.345,0,4.574-0.479,6.621-1.31
	C123.897,137.311,119.327,130.991,119.327,123.586z"/>
<path style="fill:#FF6472;" d="M176.707,141.241L176.707,141.241c-9.751,0-17.655-7.904-17.655-17.655v-17.655
	c0-9.751,7.904-17.655,17.655-17.655l0,0c9.751,0,17.655,7.904,17.655,17.655v17.655
	C194.362,133.337,186.458,141.241,176.707,141.241z"/>
<path style="fill:#D25566;" d="M172.293,123.586v-17.655c0-7.405,4.569-13.725,11.034-16.345c-2.047-0.83-4.276-1.31-6.621-1.31
	c-9.75,0-17.655,7.904-17.655,17.655v17.655c0,9.75,7.905,17.655,17.655,17.655c2.345,0,4.574-0.479,6.621-1.31
	C176.862,137.311,172.293,130.991,172.293,123.586z"/>
<path style="fill:#FF6472;" d="M282.638,141.241L282.638,141.241c-9.751,0-17.655-7.904-17.655-17.655v-17.655
	c0-9.751,7.904-17.655,17.655-17.655l0,0c9.751,0,17.655,7.904,17.655,17.655v17.655
	C300.293,133.337,292.389,141.241,282.638,141.241z"/>
<path style="fill:#D25566;" d="M278.224,123.586v-17.655c0-7.405,4.569-13.725,11.034-16.345c-2.047-0.83-4.276-1.31-6.621-1.31
	c-9.75,0-17.655,7.904-17.655,17.655v17.655c0,9.75,7.905,17.655,17.655,17.655c2.345,0,4.574-0.479,6.621-1.31
	C282.793,137.311,278.224,130.991,278.224,123.586z"/>
<path style="fill:#FF6472;" d="M335.603,141.241L335.603,141.241c-9.751,0-17.655-7.904-17.655-17.655v-17.655
	c0-9.751,7.904-17.655,17.655-17.655l0,0c9.751,0,17.655,7.904,17.655,17.655v17.655
	C353.258,133.337,345.354,141.241,335.603,141.241z"/>
<path style="fill:#D25566;" d="M331.19,123.586v-17.655c0-7.405,4.569-13.725,11.034-16.345c-2.047-0.83-4.276-1.31-6.621-1.31
	c-9.75,0-17.655,7.904-17.655,17.655v17.655c0,9.75,7.905,17.655,17.655,17.655c2.345,0,4.574-0.479,6.621-1.31
	C335.759,137.311,331.19,130.991,331.19,123.586z"/>
<path style="fill:#FF6472;" d="M388.569,141.241L388.569,141.241c-9.751,0-17.655-7.904-17.655-17.655v-17.655
	c0-9.751,7.904-17.655,17.655-17.655l0,0c9.751,0,17.655,7.904,17.655,17.655v17.655
	C406.224,133.337,398.32,141.241,388.569,141.241z"/>
<path style="fill:#D25566;" d="M384.155,123.586v-17.655c0-7.405,4.569-13.725,11.034-16.345c-2.047-0.83-4.276-1.31-6.621-1.31
	c-9.75,0-17.655,7.904-17.655,17.655v17.655c0,9.75,7.905,17.655,17.655,17.655c2.345,0,4.574-0.479,6.621-1.31
	C388.724,137.311,384.155,130.991,384.155,123.586z"/>
<rect x="70.776" y="176.552" style="fill:#FFAF4B;" width="370.759" height="17.655"/>
<path style="fill:#D28CE6;" d="M123.741,211.862L123.741,211.862c-9.751,0-17.655-7.904-17.655-17.655v-17.655
	c0-9.751,7.904-17.655,17.655-17.655l0,0c9.751,0,17.655,7.904,17.655,17.655v17.655
	C141.396,203.958,133.492,211.862,123.741,211.862z"/>
<path style="fill:#BE73D2;" d="M119.327,194.207v-17.655c0-7.405,4.569-13.725,11.034-16.345c-2.047-0.83-4.276-1.31-6.621-1.31
	c-9.75,0-17.655,7.904-17.655,17.655v17.655c0,9.75,7.905,17.655,17.655,17.655c2.345,0,4.574-0.479,6.621-1.31
	C123.897,207.932,119.327,201.612,119.327,194.207z"/>
<path style="fill:#D28CE6;" d="M176.707,211.862L176.707,211.862c-9.751,0-17.655-7.904-17.655-17.655v-17.655
	c0-9.751,7.904-17.655,17.655-17.655l0,0c9.751,0,17.655,7.904,17.655,17.655v17.655
	C194.362,203.958,186.458,211.862,176.707,211.862z"/>
<path style="fill:#BE73D2;" d="M172.293,194.207v-17.655c0-7.405,4.569-13.725,11.034-16.345c-2.047-0.83-4.276-1.31-6.621-1.31
	c-9.75,0-17.655,7.904-17.655,17.655v17.655c0,9.75,7.905,17.655,17.655,17.655c2.345,0,4.574-0.479,6.621-1.31
	C176.862,207.932,172.293,201.612,172.293,194.207z"/>
<path style="fill:#D28CE6;" d="M229.672,211.862L229.672,211.862c-9.751,0-17.655-7.904-17.655-17.655v-17.655
	c0-9.751,7.904-17.655,17.655-17.655l0,0c9.751,0,17.655,7.904,17.655,17.655v17.655
	C247.327,203.958,239.423,211.862,229.672,211.862z"/>
<path style="fill:#BE73D2;" d="M225.258,194.207v-17.655c0-7.405,4.569-13.725,11.034-16.345c-2.047-0.83-4.276-1.31-6.621-1.31
	c-9.75,0-17.655,7.904-17.655,17.655v17.655c0,9.75,7.905,17.655,17.655,17.655c2.345,0,4.574-0.479,6.621-1.31
	C229.828,207.932,225.258,201.612,225.258,194.207z"/>
<path style="fill:#D28CE6;" d="M335.603,211.862L335.603,211.862c-9.751,0-17.655-7.904-17.655-17.655v-17.655
	c0-9.751,7.904-17.655,17.655-17.655l0,0c9.751,0,17.655,7.904,17.655,17.655v17.655
	C353.258,203.958,345.354,211.862,335.603,211.862z"/>
<path style="fill:#BE73D2;" d="M331.19,194.207v-17.655c0-7.405,4.569-13.725,11.034-16.345c-2.047-0.83-4.276-1.31-6.621-1.31
	c-9.75,0-17.655,7.904-17.655,17.655v17.655c0,9.75,7.905,17.655,17.655,17.655c2.345,0,4.574-0.479,6.621-1.31
	C335.759,207.932,331.19,201.612,331.19,194.207z"/>
<path style="fill:#D28CE6;" d="M388.569,211.862L388.569,211.862c-9.751,0-17.655-7.904-17.655-17.655v-17.655
	c0-9.751,7.904-17.655,17.655-17.655l0,0c9.751,0,17.655,7.904,17.655,17.655v17.655
	C406.224,203.958,398.32,211.862,388.569,211.862z"/>
<path style="fill:#BE73D2;" d="M384.155,194.207v-17.655c0-7.405,4.569-13.725,11.034-16.345c-2.047-0.83-4.276-1.31-6.621-1.31
	c-9.75,0-17.655,7.904-17.655,17.655v17.655c0,9.75,7.905,17.655,17.655,17.655c2.345,0,4.574-0.479,6.621-1.31
	C388.724,207.932,384.155,201.612,384.155,194.207z"/>
<rect x="70.776" y="247.172" style="fill:#FFAF4B;" width="370.759" height="17.655"/>
<path style="fill:#8CD2FF;" d="M123.741,282.483L123.741,282.483c-9.751,0-17.655-7.904-17.655-17.655v-17.655
	c0-9.751,7.904-17.655,17.655-17.655l0,0c9.751,0,17.655,7.904,17.655,17.655v17.655
	C141.396,274.579,133.492,282.483,123.741,282.483z"/>
<path style="fill:#69BEFF;" d="M119.327,264.828v-17.655c0-7.405,4.569-13.725,11.034-16.345c-2.047-0.83-4.276-1.31-6.621-1.31
	c-9.75,0-17.655,7.904-17.655,17.655v17.655c0,9.75,7.905,17.655,17.655,17.655c2.345,0,4.574-0.479,6.621-1.31
	C123.897,278.552,119.327,272.233,119.327,264.828z"/>
<path style="fill:#8CD2FF;" d="M176.707,282.483L176.707,282.483c-9.751,0-17.655-7.904-17.655-17.655v-17.655
	c0-9.751,7.904-17.655,17.655-17.655l0,0c9.751,0,17.655,7.904,17.655,17.655v17.655
	C194.362,274.579,186.458,282.483,176.707,282.483z"/>
<path style="fill:#69BEFF;" d="M172.293,264.828v-17.655c0-7.405,4.569-13.725,11.034-16.345c-2.047-0.83-4.276-1.31-6.621-1.31
	c-9.75,0-17.655,7.904-17.655,17.655v17.655c0,9.75,7.905,17.655,17.655,17.655c2.345,0,4.574-0.479,6.621-1.31
	C176.862,278.552,172.293,272.233,172.293,264.828z"/>
<path style="fill:#8CD2FF;" d="M229.672,282.483L229.672,282.483c-9.751,0-17.655-7.904-17.655-17.655v-17.655
	c0-9.751,7.904-17.655,17.655-17.655l0,0c9.751,0,17.655,7.904,17.655,17.655v17.655
	C247.327,274.579,239.423,282.483,229.672,282.483z"/>
<path style="fill:#69BEFF;" d="M225.258,264.828v-17.655c0-7.405,4.569-13.725,11.034-16.345c-2.047-0.83-4.276-1.31-6.621-1.31
	c-9.75,0-17.655,7.904-17.655,17.655v17.655c0,9.75,7.905,17.655,17.655,17.655c2.345,0,4.574-0.479,6.621-1.31
	C229.828,278.552,225.258,272.233,225.258,264.828z"/>
<path style="fill:#8CD2FF;" d="M282.638,282.483L282.638,282.483c-9.751,0-17.655-7.904-17.655-17.655v-17.655
	c0-9.751,7.904-17.655,17.655-17.655l0,0c9.751,0,17.655,7.904,17.655,17.655v17.655
	C300.293,274.579,292.389,282.483,282.638,282.483z"/>
<path style="fill:#69BEFF;" d="M278.224,264.828v-17.655c0-7.405,4.569-13.725,11.034-16.345c-2.047-0.83-4.276-1.31-6.621-1.31
	c-9.75,0-17.655,7.904-17.655,17.655v17.655c0,9.75,7.905,17.655,17.655,17.655c2.345,0,4.574-0.479,6.621-1.31
	C282.793,278.552,278.224,272.233,278.224,264.828z"/>
<path style="fill:#8CD2FF;" d="M388.569,282.483L388.569,282.483c-9.751,0-17.655-7.904-17.655-17.655v-17.655
	c0-9.751,7.904-17.655,17.655-17.655l0,0c9.751,0,17.655,7.904,17.655,17.655v17.655
	C406.224,274.579,398.32,282.483,388.569,282.483z"/>
<path style="fill:#69BEFF;" d="M384.155,264.828v-17.655c0-7.405,4.569-13.725,11.034-16.345c-2.047-0.83-4.276-1.31-6.621-1.31
	c-9.75,0-17.655,7.904-17.655,17.655v17.655c0,9.75,7.905,17.655,17.655,17.655c2.345,0,4.574-0.479,6.621-1.31
	C388.724,278.552,384.155,272.233,384.155,264.828z"/>
<rect x="70.776" y="317.793" style="fill:#FFAF4B;" width="370.759" height="17.655"/>
<path style="fill:#00D2B9;" d="M123.741,353.103L123.741,353.103c-9.751,0-17.655-7.904-17.655-17.655v-17.655
	c0-9.751,7.904-17.655,17.655-17.655l0,0c9.751,0,17.655,7.904,17.655,17.655v17.655
	C141.396,345.199,133.492,353.103,123.741,353.103z"/>
<path style="fill:#00BEA9;" d="M119.327,335.448v-17.655c0-7.405,4.569-13.725,11.034-16.345c-2.047-0.83-4.276-1.31-6.621-1.31
	c-9.75,0-17.655,7.904-17.655,17.655v17.655c0,9.75,7.905,17.655,17.655,17.655c2.345,0,4.574-0.479,6.621-1.31
	C123.897,349.173,119.327,342.854,119.327,335.448z"/>
<path style="fill:#00D2B9;" d="M176.707,353.103L176.707,353.103c-9.751,0-17.655-7.904-17.655-17.655v-17.655
	c0-9.751,7.904-17.655,17.655-17.655l0,0c9.751,0,17.655,7.904,17.655,17.655v17.655
	C194.362,345.199,186.458,353.103,176.707,353.103z"/>
<path style="fill:#00BEA9;" d="M172.293,335.448v-17.655c0-7.405,4.569-13.725,11.034-16.345c-2.047-0.83-4.276-1.31-6.621-1.31
	c-9.75,0-17.655,7.904-17.655,17.655v17.655c0,9.75,7.905,17.655,17.655,17.655c2.345,0,4.574-0.479,6.621-1.31
	C176.862,349.173,172.293,342.854,172.293,335.448z"/>
<path style="fill:#00D2B9;" d="M229.672,353.103L229.672,353.103c-9.751,0-17.655-7.904-17.655-17.655v-17.655
	c0-9.751,7.904-17.655,17.655-17.655l0,0c9.751,0,17.655,7.904,17.655,17.655v17.655
	C247.327,345.199,239.423,353.103,229.672,353.103z"/>
<path style="fill:#00BEA9;" d="M225.258,335.448v-17.655c0-7.405,4.569-13.725,11.034-16.345c-2.047-0.83-4.276-1.31-6.621-1.31
	c-9.75,0-17.655,7.904-17.655,17.655v17.655c0,9.75,7.905,17.655,17.655,17.655c2.345,0,4.574-0.479,6.621-1.31
	C229.828,349.173,225.258,342.854,225.258,335.448z"/>
<path style="fill:#00D2B9;" d="M282.638,353.103L282.638,353.103c-9.751,0-17.655-7.904-17.655-17.655v-17.655
	c0-9.751,7.904-17.655,17.655-17.655l0,0c9.751,0,17.655,7.904,17.655,17.655v17.655
	C300.293,345.199,292.389,353.103,282.638,353.103z"/>
<path style="fill:#00BEA9;" d="M278.224,335.448v-17.655c0-7.405,4.569-13.725,11.034-16.345c-2.047-0.83-4.276-1.31-6.621-1.31
	c-9.75,0-17.655,7.904-17.655,17.655v17.655c0,9.75,7.905,17.655,17.655,17.655c2.345,0,4.574-0.479,6.621-1.31
	C282.793,349.173,278.224,342.854,278.224,335.448z"/>
<path style="fill:#00D2B9;" d="M335.603,353.103L335.603,353.103c-9.751,0-17.655-7.904-17.655-17.655v-17.655
	c0-9.751,7.904-17.655,17.655-17.655l0,0c9.751,0,17.655,7.904,17.655,17.655v17.655
	C353.258,345.199,345.354,353.103,335.603,353.103z"/>
<path style="fill:#00BEA9;" d="M331.19,335.448v-17.655c0-7.405,4.569-13.725,11.034-16.345c-2.047-0.83-4.276-1.31-6.621-1.31
	c-9.75,0-17.655,7.904-17.655,17.655v17.655c0,9.75,7.905,17.655,17.655,17.655c2.345,0,4.574-0.479,6.621-1.31
	C335.759,349.173,331.19,342.854,331.19,335.448z"/>
<rect x="70.776" y="388.414" style="fill:#FFAF4B;" width="370.759" height="17.655"/>
<path style="fill:#A0EB64;" d="M123.741,423.724L123.741,423.724c-9.751,0-17.655-7.904-17.655-17.655v-17.655
	c0-9.751,7.904-17.655,17.655-17.655l0,0c9.751,0,17.655,7.904,17.655,17.655v17.655
	C141.396,415.82,133.492,423.724,123.741,423.724z"/>
<path style="fill:#87D25A;" d="M119.327,406.069v-17.655c0-7.405,4.569-13.725,11.034-16.345c-2.047-0.83-4.276-1.31-6.621-1.31
	c-9.75,0-17.655,7.904-17.655,17.655v17.655c0,9.75,7.905,17.655,17.655,17.655c2.345,0,4.574-0.479,6.621-1.31
	C123.897,419.794,119.327,413.474,119.327,406.069z"/>
<path style="fill:#A0EB64;" d="M176.707,423.724L176.707,423.724c-9.751,0-17.655-7.904-17.655-17.655v-17.655
	c0-9.751,7.904-17.655,17.655-17.655l0,0c9.751,0,17.655,7.904,17.655,17.655v17.655
	C194.362,415.82,186.458,423.724,176.707,423.724z"/>
<path style="fill:#87D25A;" d="M172.293,406.069v-17.655c0-7.405,4.569-13.725,11.034-16.345c-2.047-0.83-4.276-1.31-6.621-1.31
	c-9.75,0-17.655,7.904-17.655,17.655v17.655c0,9.75,7.905,17.655,17.655,17.655c2.345,0,4.574-0.479,6.621-1.31
	C176.862,419.794,172.293,413.474,172.293,406.069z"/>
<path style="fill:#A0EB64;" d="M229.672,423.724L229.672,423.724c-9.751,0-17.655-7.904-17.655-17.655v-17.655
	c0-9.751,7.904-17.655,17.655-17.655l0,0c9.751,0,17.655,7.904,17.655,17.655v17.655
	C247.327,415.82,239.423,423.724,229.672,423.724z"/>
<path style="fill:#87D25A;" d="M225.258,406.069v-17.655c0-7.405,4.569-13.725,11.034-16.345c-2.047-0.83-4.276-1.31-6.621-1.31
	c-9.75,0-17.655,7.904-17.655,17.655v17.655c0,9.75,7.905,17.655,17.655,17.655c2.345,0,4.574-0.479,6.621-1.31
	C229.828,419.794,225.258,413.474,225.258,406.069z"/>
<path style="fill:#A0EB64;" d="M282.638,423.724L282.638,423.724c-9.751,0-17.655-7.904-17.655-17.655v-17.655
	c0-9.751,7.904-17.655,17.655-17.655l0,0c9.751,0,17.655,7.904,17.655,17.655v17.655
	C300.293,415.82,292.389,423.724,282.638,423.724z"/>
<path style="fill:#87D25A;" d="M278.224,406.069v-17.655c0-7.405,4.569-13.725,11.034-16.345c-2.047-0.83-4.276-1.31-6.621-1.31
	c-9.75,0-17.655,7.904-17.655,17.655v17.655c0,9.75,7.905,17.655,17.655,17.655c2.345,0,4.574-0.479,6.621-1.31
	C282.793,419.794,278.224,413.474,278.224,406.069z"/>
<path style="fill:#A0EB64;" d="M388.569,423.724L388.569,423.724c-9.751,0-17.655-7.904-17.655-17.655v-17.655
	c0-9.751,7.904-17.655,17.655-17.655l0,0c9.751,0,17.655,7.904,17.655,17.655v17.655C406.224,415.82,398.32,423.724,388.569,423.724
	z"/>
<path style="fill:#87D25A;" d="M384.155,406.069v-17.655c0-7.405,4.569-13.725,11.034-16.345c-2.047-0.83-4.276-1.31-6.621-1.31
	c-9.75,0-17.655,7.904-17.655,17.655v17.655c0,9.75,7.905,17.655,17.655,17.655c2.345,0,4.574-0.479,6.621-1.31
	C388.724,419.794,384.155,413.474,384.155,406.069z"/>
<rect x="70.776" y="459.034" style="fill:#FFAF4B;" width="370.759" height="17.655"/>
<path style="fill:#D2F500;" d="M123.741,494.345L123.741,494.345c-9.751,0-17.655-7.904-17.655-17.655v-17.655
	c0-9.751,7.904-17.655,17.655-17.655l0,0c9.751,0,17.655,7.904,17.655,17.655v17.655
	C141.396,486.441,133.492,494.345,123.741,494.345z"/>
<path style="fill:#B9EB46;" d="M119.327,476.69v-17.655c0-7.405,4.569-13.725,11.034-16.345c-2.047-0.83-4.276-1.31-6.621-1.31
	c-9.75,0-17.655,7.904-17.655,17.655v17.655c0,9.75,7.905,17.655,17.655,17.655c2.345,0,4.574-0.479,6.621-1.31
	C123.897,490.414,119.327,484.095,119.327,476.69z"/>
<path style="fill:#D2F500;" d="M176.707,494.345L176.707,494.345c-9.751,0-17.655-7.904-17.655-17.655v-17.655
	c0-9.751,7.904-17.655,17.655-17.655l0,0c9.751,0,17.655,7.904,17.655,17.655v17.655
	C194.362,486.441,186.458,494.345,176.707,494.345z"/>
<path style="fill:#B9EB46;" d="M172.293,476.69v-17.655c0-7.405,4.569-13.725,11.034-16.345c-2.047-0.83-4.276-1.31-6.621-1.31
	c-9.75,0-17.655,7.904-17.655,17.655v17.655c0,9.75,7.905,17.655,17.655,17.655c2.345,0,4.574-0.479,6.621-1.31
	C176.862,490.414,172.293,484.095,172.293,476.69z"/>
<path style="fill:#D2F500;" d="M229.672,494.345L229.672,494.345c-9.751,0-17.655-7.904-17.655-17.655v-17.655
	c0-9.751,7.904-17.655,17.655-17.655l0,0c9.751,0,17.655,7.904,17.655,17.655v17.655
	C247.327,486.441,239.423,494.345,229.672,494.345z"/>
<path style="fill:#B9EB46;" d="M225.258,476.69v-17.655c0-7.405,4.569-13.725,11.034-16.345c-2.047-0.83-4.276-1.31-6.621-1.31
	c-9.75,0-17.655,7.904-17.655,17.655v17.655c0,9.75,7.905,17.655,17.655,17.655c2.345,0,4.574-0.479,6.621-1.31
	C229.828,490.414,225.258,484.095,225.258,476.69z"/>
<path style="fill:#D2F500;" d="M335.603,494.345L335.603,494.345c-9.751,0-17.655-7.904-17.655-17.655v-17.655
	c0-9.751,7.904-17.655,17.655-17.655l0,0c9.751,0,17.655,7.904,17.655,17.655v17.655
	C353.258,486.441,345.354,494.345,335.603,494.345z"/>
<path style="fill:#B9EB46;" d="M331.19,476.69v-17.655c0-7.405,4.569-13.725,11.034-16.345c-2.047-0.83-4.276-1.31-6.621-1.31
	c-9.75,0-17.655,7.904-17.655,17.655v17.655c0,9.75,7.905,17.655,17.655,17.655c2.345,0,4.574-0.479,6.621-1.31
	C335.759,490.414,331.19,484.095,331.19,476.69z"/>
<path style="fill:#D2F500;" d="M388.569,494.345L388.569,494.345c-9.751,0-17.655-7.904-17.655-17.655v-17.655
	c0-9.751,7.904-17.655,17.655-17.655l0,0c9.751,0,17.655,7.904,17.655,17.655v17.655
	C406.224,486.441,398.32,494.345,388.569,494.345z"/>
<path style="fill:#B9EB46;" d="M384.155,476.69v-17.655c0-7.405,4.569-13.725,11.034-16.345c-2.047-0.83-4.276-1.31-6.621-1.31
	c-9.75,0-17.655,7.904-17.655,17.655v17.655c0,9.75,7.905,17.655,17.655,17.655c2.345,0,4.574-0.479,6.621-1.31
	C388.724,490.414,384.155,484.095,384.155,476.69z"/>
<g>
	<path style="fill:#FFC855;" d="M79.294,8.828v494.345c0,4.875-3.953,8.828-8.828,8.828H44.293c-4.994,0-8.994-4.14-8.822-9.132
		L52.517,8.523C52.681,3.769,56.583,0,61.34,0h9.127C75.342,0,79.294,3.953,79.294,8.828z"/>
	<path style="fill:#FFC855;" d="M432.707,8.828v494.345c0,4.875,3.953,8.828,8.828,8.828h26.173c4.994,0,8.994-4.14,8.822-9.132
		L459.483,8.523C459.32,3.769,455.418,0,450.661,0h-9.127C436.659,0,432.707,3.953,432.707,8.828z"/>
</g>
<g>
</g>
<g>
</g>
<g>
</g>
<g>
</g>
<g>
</g>
<g>
</g>
<g>
</g>
<g>
</g>
<g>
</g>
<g>
</g>
<g>
</g>
<g>
</g>
<g>
</g>
<g>
</g>
<g>
</g>
</svg>
