<?xml version="1.0" encoding="iso-8859-1"?>
<!-- Generator: Adobe Illustrator 19.0.0, SVG Export Plug-In . SVG Version: 6.00 Build 0)  -->
<svg version="1.1" id="Layer_1" xmlns="http://www.w3.org/2000/svg" xmlns:xlink="http://www.w3.org/1999/xlink" x="0px" y="0px"
	 viewBox="0 0 512 512" style="enable-background:new 0 0 512 512;" xml:space="preserve">
<path style="fill:#8CD2FF;" d="M423.724,512H88.276c-9.751,0-17.655-7.904-17.655-17.655V26.483c0-9.751,7.904-17.655,17.655-17.655
	h335.448c9.751,0,17.655,7.904,17.655,17.655v467.862C441.379,504.096,433.475,512,423.724,512z"/>
<path style="fill:#E15050;" d="M343.647,235.069l-43.285-108.207c-2.944-7.352-9.961-12.103-17.879-12.103
	s-14.935,4.75-17.884,12.104L221.319,235.07c-1.811,4.53,0.392,9.664,4.918,11.478c4.538,1.789,9.664-0.401,11.478-4.918
	l8.373-20.936h72.788l8.374,20.936c1.384,3.448,4.698,5.551,8.203,5.551c1.09,0,2.198-0.207,3.276-0.633
	C343.254,244.733,345.457,239.599,343.647,235.069z M253.15,203.039l27.842-69.617c0.113-0.276,0.405-1.009,1.492-1.009
	c1.087,0,1.379,0.733,1.487,1.009l27.844,69.617H253.15z M318.849,220.625l0.006,0.013
	C318.817,220.634,318.809,220.63,318.849,220.625z"/>
<path style="fill:#FFE6A1;" d="M248.364,322.034c4.775-6.023,7.636-13.628,7.636-21.891c0-19.47-15.84-35.31-35.31-35.31h-26.483
	c-14.603,0-26.483,11.88-26.483,26.483v105.931c0,4.875,3.953,8.828,8.828,8.828h52.966c24.337,0,44.138-19.801,44.138-44.138
	C273.655,344.338,263.298,329.117,248.364,322.034z M185.379,291.315c0-4.866,3.961-8.828,8.828-8.828h26.483
	c9.737,0,17.655,7.918,17.655,17.655c0,9.737-7.918,17.655-17.655,17.655h-35.31V291.315z M229.517,388.418h-44.138v-52.966h35.31
	h8.828c14.603,0,26.483,11.88,26.483,26.483C256,376.538,244.12,388.418,229.517,388.418z"/>
<path style="fill:#00BEA9;" d="M361.953,406.073c-4.742,0-9.535-0.466-14.327-1.414c-27.496-5.431-49.574-27.569-54.94-55.086
	c-4.12-21.146,1.246-42.651,14.716-59c13.479-16.358,33.354-25.741,54.53-25.741c12.577,0,24.927,3.349,35.707,9.681
	c5.203,3.048,8.436,8.823,8.436,15.069v10.56c0,4.875-3.953,8.828-8.828,8.828s-8.828-3.953-8.828-8.828v-10.56
	c-7.794-4.586-17.047-7.095-26.487-7.095c-15.884,0-30.788,7.039-40.9,19.31c-10.108,12.267-14.125,28.448-11.017,44.396
	c4.009,20.552,20.5,37.09,41.035,41.146c14.616,2.871,29.237-0.104,41.146-8.418c4.013-2.788,9.5-1.806,12.294,2.189
	c2.788,4,1.806,9.5-2.189,12.294C390.34,401.746,376.384,406.073,361.953,406.073z"/>
<path style="fill:#FFC855;" d="M349.572,112.992l21.183-15.889l21.19,15.891c5.82,4.364,14.124,0.212,14.124-7.062V8.828
	c0-4.875-3.953-8.828-8.828-8.828h-52.966c-4.875,0-8.828,3.953-8.828,8.828v97.102
	C335.448,113.205,343.753,117.357,349.572,112.992z"/>
<path style="fill:#69BEFF;" d="M88.276,8.828c-9.75,0-17.655,7.904-17.655,17.655v467.862c0,9.75,7.905,17.655,17.655,17.655h35.31
	V8.828H88.276z"/>
<path style="fill:#55AAF5;" d="M123.586,485.517L123.586,485.517c-4.875,0-8.828-3.953-8.828-8.828V44.138
	c0-4.875,3.953-8.828,8.828-8.828l0,0c4.875,0,8.828,3.953,8.828,8.828V476.69C132.414,481.565,128.461,485.517,123.586,485.517z"/>
<path style="fill:#FFAA4B;" d="M370.759,0h-26.483c-4.875,0-8.828,3.953-8.828,8.828v97.102c0,7.274,8.305,11.426,14.124,7.062
	l21.183-15.889l0.003,0.002V0z"/>
<g>
</g>
<g>
</g>
<g>
</g>
<g>
</g>
<g>
</g>
<g>
</g>
<g>
</g>
<g>
</g>
<g>
</g>
<g>
</g>
<g>
</g>
<g>
</g>
<g>
</g>
<g>
</g>
<g>
</g>
</svg>
