<?xml version="1.0" encoding="UTF-8" standalone="no"?>
<!-- Created with Inkscape (http://www.inkscape.org/) -->

<svg
   xmlns:osb="http://www.openswatchbook.org/uri/2009/osb"
   xmlns:dc="http://purl.org/dc/elements/1.1/"
   xmlns:cc="http://creativecommons.org/ns#"
   xmlns:rdf="http://www.w3.org/1999/02/22-rdf-syntax-ns#"
   xmlns:svg="http://www.w3.org/2000/svg"
   xmlns="http://www.w3.org/2000/svg"
   xmlns:sodipodi="http://sodipodi.sourceforge.net/DTD/sodipodi-0.dtd"
   xmlns:inkscape="http://www.inkscape.org/namespaces/inkscape"
   width="90.995682"
   height="88.160912"
   id="svg2"
   version="1.1"
   inkscape:version="0.48.4 r9939"
   sodipodi:docname="New document 1">
  <defs
     id="defs4">
    <linearGradient
       id="linearGradient3943"
       osb:paint="solid">
      <stop
         style="stop-color:#000000;stop-opacity:1;"
         offset="0"
         id="stop3945" />
    </linearGradient>
  </defs>
  <sodipodi:namedview
     id="base"
     pagecolor="#ffffff"
     bordercolor="#666666"
     borderopacity="1.0"
     inkscape:pageopacity="0.0"
     inkscape:pageshadow="2"
     inkscape:zoom="1.4"
     inkscape:cx="27.966872"
     inkscape:cy="-69.211766"
     inkscape:document-units="px"
     inkscape:current-layer="g3117"
     showgrid="false"
     fit-margin-top="0"
     fit-margin-left="0"
     fit-margin-right="0"
     fit-margin-bottom="0"
     inkscape:window-width="1855"
     inkscape:window-height="1056"
     inkscape:window-x="65"
     inkscape:window-y="24"
     inkscape:window-maximized="1" />
  <metadata
     id="metadata7">
    <rdf:RDF>
      <cc:Work
         rdf:about="">
        <dc:format>image/svg+xml</dc:format>
        <dc:type
           rdf:resource="http://purl.org/dc/dcmitype/StillImage" />
        <dc:title></dc:title>
      </cc:Work>
    </rdf:RDF>
  </metadata>
  <g
     inkscape:label="Layer 1"
     inkscape:groupmode="layer"
     id="layer1"
     transform="translate(-256.64635,-249.71271)">
    <g
       id="g3117"
       transform="matrix(0.6015798,0,0,0.65812283,145.25626,113.71938)">
      <path
         style="fill:#000080;fill-opacity:1"
         d=""
         id="path3132"
         inkscape:connector-curvature="0"
         transform="matrix(1.6622899,0,0,1.5194732,-241.45801,-172.79355)" />
      <path
         sodipodi:type="arc"
         style="fill:#ffffff;fill-opacity:1;stroke:#000000;stroke-width:1;stroke-miterlimit:4;stroke-opacity:1;stroke-dasharray:none"
         id="path3941"
         sodipodi:cx="300.35715"
         sodipodi:cy="495.93362"
         sodipodi:rx="76.071426"
         sodipodi:ry="70.714287"
         d="m 376.42857,495.93362 c 0,39.05443 -34.05833,70.71429 -76.07142,70.71429 -42.01309,0 -76.07143,-31.65986 -76.07143,-70.71429 0,-39.05442 34.05834,-70.71428 76.07143,-70.71428 42.01309,0 76.07142,31.65986 76.07142,70.71428 z"
         transform="matrix(0.98762671,0,0,0.94046966,-35.849721,-192.79688)" />
      <g
         id="g3150"
         transform="matrix(0.80572831,0,0,0.88456151,65.619175,18.380109)">
        <path
           style="fill:#000000"
           d="m 219.01692,346.75332 c -0.21446,-0.28724 0.0759,-3.26932 0.64527,-6.62683 0.56936,-3.3575 1.02261,-6.63484 1.00722,-7.28297 -0.0198,-0.83348 -1.42981,-1.90075 -4.81712,-3.64618 -7.24562,-3.73359 -8.60046,-7.34521 -3.96631,-10.57308 4.12136,-2.87069 4.89936,-2.70798 15.97958,3.34182 2.62242,1.43185 4.96076,2.60337 5.19629,2.60337 0.23554,0 4.21013,-1.67915 8.83242,-3.73143 4.62229,-2.0523 9.03181,-3.8315 9.79892,-3.95379 2.03694,-0.32472 5.3038,1.26946 6.08444,2.96912 0.9181,1.99894 -0.25763,4.77828 -2.63563,6.23046 -1.02946,0.62866 -4.20848,2.20368 -7.06448,3.50005 l -5.19273,2.35704 -1.23922,6.95777 c -0.68158,3.82678 -1.38656,7.27709 -1.56665,7.66734 -0.57107,1.23759 -3.60004,0.76945 -6.79498,-1.05019 l -3.08982,-1.75975 -4.3182,1.75975 c -4.47162,1.82228 -6.19082,2.13246 -6.859,1.2375 z M 183.01024,328.0021 c -0.87235,-0.45678 -0.84653,-1.4445 0.20251,-7.74714 0.6613,-3.97298 0.95692,-7.37422 0.65697,-7.55828 -0.29998,-0.18407 -2.31187,-1.29561 -4.4709,-2.47009 -2.15902,-1.17449 -4.55056,-2.69081 -5.31452,-3.36961 -2.37827,-2.11317 -1.47591,-5.97756 1.92823,-8.25768 2.18327,-1.46238 6.11069,-0.84361 10.60259,1.67043 2.33882,1.30899 5.50681,3.07905 7.03999,3.93345 l 2.78758,1.55345 8.67176,-3.93345 c 9.45723,-4.28974 12.42247,-4.84671 14.8972,-2.79814 1.54508,1.279 1.77378,3.7569 0.55168,5.97723 -0.74046,1.34527 -11.1692,7.07879 -12.87565,7.07879 -1.11581,0 -1.48539,1.07935 -2.48481,7.2569 -1.28436,7.93869 -1.44111,8.44988 -2.71522,8.8546 -1.12687,0.35795 -4.17604,-0.74969 -7.26078,-2.63755 l -1.81232,-1.10915 -4.42527,2.04858 c -4.97002,2.30076 -4.62874,2.2147 -5.97904,1.50766 z m 78.50013,-0.0117 c -0.22696,-0.30396 0.0634,-3.37808 0.64526,-6.83135 0.58185,-3.45329 1.05791,-6.74833 1.05791,-7.32233 0,-0.66068 -1.67964,-1.95532 -4.57757,-3.52831 -2.51766,-1.36658 -5.19275,-3.17815 -5.94463,-4.02569 -1.21139,-1.36552 -1.27392,-1.79836 -0.54901,-3.80121 0.44993,-1.24312 1.62371,-2.78481 2.60839,-3.42598 3.13325,-2.04019 5.47351,-1.54572 13.65046,2.88413 l 7.47558,4.04989 2.06875,-1.00067 c 1.13783,-0.55037 3.4574,-1.6374 5.15462,-2.4156 1.69721,-0.77821 4.66634,-2.15036 6.59804,-3.04922 4.1303,-1.9219 7.25015,-2.09159 9.17407,-0.49897 1.37569,1.13878 1.61461,1.90449 1.4169,4.54122 -0.13735,1.83163 -3.85728,4.58704 -9.74929,7.2214 -5.18264,2.31722 -5.24724,2.42668 -6.7925,11.51117 -1.1994,7.05117 -1.89085,7.43615 -7.76706,4.32451 l -3.62523,-1.91967 -4.05645,1.91257 c -4.1595,1.96116 -6.06237,2.34634 -6.78824,1.37409 z m -31.38399,-7.38163 c -1.52257,-0.99354 -1.8858,-1.69032 -1.8858,-3.6175 0,-2.74452 1.29404,-4.55431 4.12203,-5.76488 2.72433,-1.16619 4.96416,-1.06264 7.10027,0.32827 1.46414,0.95337 1.80684,1.65149 1.80684,3.68079 0,5.01773 -6.72143,8.25879 -11.14334,5.37332 z m -4.96369,-11.92294 c -0.22872,-0.30634 -0.10611,-2.03059 0.27241,-3.83166 0.37854,-1.80106 0.8909,-5.08438 1.13856,-7.29626 l 0.4503,-4.02161 -2.30612,-1.18805 c -5.7214,-2.94757 -8.51024,-4.84592 -8.91192,-6.06634 -1.16786,-3.54824 2.39432,-7.38274 6.85846,-7.38274 2.06576,0 3.99545,0.77906 9.45879,3.81876 3.77497,2.10032 7.15074,3.81875 7.50174,3.81875 0.35098,0 3.84861,-1.5354 7.77251,-3.41201 3.9239,-1.87662 8.3272,-3.70786 9.78511,-4.06943 2.32496,-0.57663 2.87422,-0.51931 4.46908,0.46637 2.55548,1.57938 3.23345,3.61886 2.00924,6.04424 -0.79531,1.57565 -2.32024,2.61829 -7.57033,5.17604 -4.578,2.23031 -6.66974,3.58643 -6.88834,4.46583 -0.17267,0.6946 -0.66043,3.43418 -1.08395,6.08796 -1.0833,6.78816 -1.30813,7.34656 -3.10866,7.72064 -1.11545,0.23175 -2.52035,-0.19608 -4.6765,-1.42407 -1.69513,-0.96545 -3.48933,-1.75072 -3.98712,-1.74506 -0.49778,0.006 -2.57443,0.77198 -4.61478,1.70297 -3.83553,1.75007 -5.84976,2.09833 -6.56848,1.13567 z m -29.49496,-6.13743 c -2.14285,-0.36658 -3.70627,-1.80631 -4.16644,-3.83681 -1.20699,-5.3259 7.15609,-9.4587 11.82902,-5.84557 1.47082,1.13725 1.67618,1.69966 1.39238,3.81333 -0.50787,3.7826 -4.83953,6.5902 -9.05496,5.86905 z m 77.97295,-0.12295 c -1.94646,-0.67323 -3.56654,-3.72578 -3.08473,-5.81222 0.50009,-2.16552 4.52034,-4.96766 7.12717,-4.96766 2.18868,0 4.73068,0.87948 5.57795,1.92985 0.71419,0.88543 0.64295,3.98318 -0.13034,5.66683 -1.20616,2.62613 -6.22928,4.31101 -9.49005,3.1832 z m -84.93015,-13.3448 c -0.21976,-0.47408 -0.0732,-1.94288 0.32554,-3.26401 0.39881,-1.32112 0.93295,-4.32235 1.18698,-6.66939 l 0.46186,-4.26734 -5.16324,-3.05671 c -6.24567,-3.69753 -7.12269,-4.81494 -5.99639,-7.63996 1.06624,-2.67438 3.67481,-4.32627 6.83179,-4.32627 1.93814,0 4.12433,0.87585 9.66178,3.87078 l 7.15684,3.87077 4.13208,-1.97804 c 10.18569,-4.87593 12.42903,-5.73807 14.96371,-5.75061 1.86291,-0.01 3.08116,0.38316 4.28591,1.38043 3.68521,3.05058 1.56726,6.12438 -7.23148,10.49509 l -6.51457,3.23607 -1.13125,6.63891 c -0.62217,3.6514 -1.3068,7.01766 -1.5214,7.48057 -0.61454,1.32569 -3.07135,0.99245 -6.84181,-0.92801 l -3.47442,-1.76969 -3.88873,1.76969 c -4.26265,1.93985 -6.62736,2.2362 -7.2432,0.90772 z m 79.59336,0.10142 c -0.19391,-0.4183 0.12436,-3.4009 0.70727,-6.628 0.5829,-3.2271 1.05982,-6.29362 1.05982,-6.81446 0,-0.53295 -2.272,-2.27888 -5.19617,-3.99304 -5.2227,-3.06156 -6.46147,-4.20192 -6.46147,-5.94804 0,-1.73748 2.10447,-4.64183 3.83689,-5.29525 3.52311,-1.3288 5.75397,-0.79298 12.67123,3.04344 3.65906,2.02936 7.07328,3.68378 7.58717,3.67649 0.51391,-0.008 2.47729,-0.75737 4.36309,-1.66682 11.37996,-5.48818 15.03131,-6.52325 18.14518,-5.14375 1.91129,0.84675 2.7315,3.39129 1.82467,5.66065 -0.62914,1.57439 -1.95396,2.52618 -7.28358,5.23266 -3.58302,1.81952 -6.7379,3.37249 -7.01085,3.45103 -0.27295,0.0786 -1.03367,3.40865 -1.69047,7.40023 -1.10995,6.74551 -1.30698,7.28085 -2.79328,7.58965 -1.10598,0.22978 -2.695,-0.23171 -5.15298,-1.49655 l -3.55389,-1.82876 -4.31288,1.76052 c -4.73367,1.9323 -6.20627,2.1508 -6.73975,1 z m -30.93238,-6.05527 c -1.96959,-0.65691 -2.95924,-2.27858 -2.95924,-4.84913 0,-1.68392 0.49184,-2.46237 2.53412,-4.01089 3.44414,-2.61144 6.86409,-2.67505 9.40546,-0.17492 2.17883,2.14349 2.25316,4.13397 0.24495,6.56005 -2.32884,2.81344 -5.58838,3.68788 -9.22529,2.47489 z m -5.44756,-12.75387 c -0.33674,-0.7264 0.0443,-3.78434 1.53074,-12.28459 0.32469,-1.8568 0.10962,-2.21234 -2.25616,-3.72949 -1.4383,-0.92236 -3.77617,-2.25672 -5.19529,-2.96524 -2.97885,-1.48724 -3.93436,-2.71284 -3.93436,-5.04645 0,-2.28351 2.29228,-4.49775 5.47288,-5.28658 2.46597,-0.61159 2.94244,-0.52561 6.64921,1.1998 2.19611,1.02225 5.66321,2.84522 7.70469,4.05107 2.04149,1.20585 3.96471,2.19245 4.27382,2.19245 0.30913,0 2.49613,-0.97699 4.86002,-2.17109 8.01359,-4.04801 13.32234,-5.94738 15.41469,-5.51508 3.09317,0.63908 4.31254,1.92441 4.31254,4.54586 0,2.91197 -1.53927,4.21219 -9.16376,7.74062 -2.96568,1.37244 -5.61922,3.00625 -5.89675,3.63067 -0.27754,0.62441 -0.90893,3.90534 -1.4031,7.29095 -0.78432,5.37347 -1.0869,6.22671 -2.38128,6.71491 -1.18321,0.44627 -2.20631,0.20612 -5.06402,-1.18868 -1.96966,-0.96137 -3.867,-1.74794 -4.21628,-1.74794 -0.34928,0 -2.45682,0.76633 -4.68342,1.70296 -4.57818,1.92583 -5.47317,2.05446 -6.02417,0.86585 z m -32.76655,-7.72124 c -2.12093,-2.08654 -2.22863,-3.59146 -0.43158,-6.03117 2.49774,-3.391 7.32472,-4.50832 10.51166,-2.43316 5.0747,3.30433 1.084,10.21084 -5.89998,10.21084 -1.84346,0 -2.81917,-0.40767 -4.1801,-1.74651 z m 80.31678,0.9407 c -1.91218,-1.20066 -2.65803,-4.1213 -1.58714,-6.215 1.2865,-2.51521 3.30528,-3.81309 6.47923,-4.1655 2.31037,-0.25652 3.02325,-0.0735 4.51055,1.15762 2.71313,2.24589 2.48068,5.57745 -0.56504,8.09867 -1.8582,1.53819 -2.86751,1.92635 -4.97164,1.91197 -1.45206,-0.01 -3.19175,-0.36442 -3.86596,-0.78776 z m -35.25006,-18.49352 c -3.88994,-1.31346 -4.54655,-5.44436 -1.38505,-8.71355 1.17652,-1.21658 2.32202,-1.68712 4.62596,-1.90023 5.59381,-0.51741 8.47456,3.03736 6.04239,7.45612 -1.41782,2.57593 -6.19441,4.20066 -9.2833,3.15766 z"
           id="path3115"
           inkscape:connector-curvature="0"
           sodipodi:nodetypes="sscssssssssscscscsssscssssscssssssscsscssssssscsssssssscsccssssssscscsssssscssssssscsssssssssscssscscsssscscsscscscsscsssssscsssscssscscsssssscsssssssssssssssssscsssssssssssssssss" />
        <path
           transform="matrix(1.6622899,0,0,1.5194732,-241.45801,-172.79355)"
           inkscape:connector-curvature="0"
           id="path3120"
           d="m 281.38358,312.72927 c 0.26171,-2.0625 0.60421,-4.23214 0.76111,-4.82143 0.17778,-0.66769 -1.05291,-1.94826 -3.26595,-3.39834 -3.74282,-2.45245 -4.26884,-3.63915 -2.42878,-5.47921 1.67898,-1.67898 3.64885,-1.37926 8.51524,1.29565 l 4.3992,2.4181 5.22052,-2.4181 c 5.79299,-2.68326 7.29391,-2.92009 8.59218,-1.35576 1.31786,1.58792 0.41803,3.01582 -3.27245,5.19293 -4.6839,2.76315 -5.0941,3.28468 -5.62616,7.15319 -0.69721,5.06937 -1.11239,5.50702 -4.17396,4.39994 -1.99717,-0.72218 -3.14396,-0.73893 -5.34959,-0.0781 -1.5441,0.46262 -3.0414,0.84113 -3.32733,0.84113 -0.28593,0 -0.30574,-1.6875 -0.044,-3.75 l 1e-5,0 z"
           style="fill:#000080;fill-opacity:1" />
        <path
           transform="matrix(1.6622899,0,0,1.5194732,-241.45801,-172.79355)"
           inkscape:connector-curvature="0"
           id="path3122"
           d="m 259.45255,303.93765 c -0.17735,-0.17735 -0.0187,-2.32948 0.35259,-4.78252 0.66376,-4.38549 0.64199,-4.48395 -1.30204,-5.88938 -5.04379,-3.64639 -5.55773,-4.29043 -4.70109,-5.89109 1.44766,-2.70497 3.42993,-2.66706 8.84403,0.16912 l 5.03072,2.63534 5.61989,-2.63725 c 5.60656,-2.631 7.40233,-2.78707 8.1984,-0.71256 0.56193,1.46436 -0.72453,2.8941 -5.15307,5.727 -3.5887,2.29567 -3.7046,2.47558 -4.20948,6.53467 -0.28555,2.2957 -0.66169,4.40691 -0.83587,4.69156 -0.17419,0.28466 -1.58849,0.009 -3.14291,-0.61327 -2.56317,-1.02558 -3.0846,-1.02744 -5.60246,-0.02 -1.52693,0.61096 -2.92135,0.96572 -3.09871,0.78837 l 0,0 z"
           style="fill:#000080;fill-opacity:1" />
        <path
           transform="matrix(1.6622899,0,0,1.5194732,-241.45801,-172.79355)"
           inkscape:connector-curvature="0"
           id="path3124"
           d="m 285.67413,286.58407 0.4916,-4.89521 -3.27497,-2.06908 c -3.34558,-2.11368 -4.16921,-4.10598 -2.42039,-5.85479 1.45035,-1.45036 4.31135,-0.92209 8.72947,1.61186 l 4.22947,2.42575 4.94177,-2.48864 c 5.81186,-2.92681 8.74214,-3.01845 8.74214,-0.2734 0,1.34372 -0.86863,2.34246 -3.57143,4.10636 -4.5455,2.96649 -5.07317,3.72192 -5.65304,8.09325 -0.54103,4.07846 -1.53351,4.80725 -4.47507,3.28611 -1.77062,-0.91562 -2.36111,-0.92251 -4.43219,-0.0517 -3.7382,1.57179 -3.84348,1.44794 -3.30736,-3.89053 l 0,0 z"
           style="fill:#000080;fill-opacity:1" />
        <path
           transform="matrix(1.6622899,0,0,1.5194732,-241.45801,-172.79355)"
           inkscape:connector-curvature="0"
           id="path3126"
           d="m 265.35599,286.15644 c -1.27147,-1.53202 -0.63421,-3.41147 1.57755,-4.65261 3.43451,-1.92731 6.31473,1.42839 3.70301,4.3143 -1.47351,1.62822 -4.07188,1.79469 -5.28056,0.33831 z"
           style="fill:#000080;fill-opacity:1" />
        <path
           transform="matrix(1.6622899,0,0,1.5194732,-241.45801,-172.79355)"
           inkscape:connector-curvature="0"
           id="path3128"
           d="m 291.4155,273.64043 c -1.20449,-1.33095 -1.20825,-1.51409 -0.0667,-3.25626 0.9541,-1.45615 1.6905,-1.79942 3.48699,-1.62544 1.86453,0.18055 2.31723,0.56417 2.49681,2.11576 0.15331,1.3246 -0.2709,2.23861 -1.40893,3.03572 -2.12523,1.48856 -2.96219,1.43848 -4.50814,-0.26978 z"
           style="fill:#000080;fill-opacity:1" />
        <path
           transform="matrix(1.6622899,0,0,1.5194732,-241.45801,-172.79355)"
           inkscape:connector-curvature="0"
           id="path3130"
           d="m 307.2898,303.91776 c -0.16339,-0.1634 -0.0225,-2.30497 0.31313,-4.75904 0.59523,-4.35245 0.56197,-4.49705 -1.35554,-5.89213 -4.86118,-3.53675 -5.44646,-4.28832 -4.58823,-5.89193 1.38868,-2.59478 3.23353,-2.56089 8.63376,0.15862 l 5.06079,2.54858 5.44464,-2.51558 c 6.09822,-2.81755 6.84695,-2.95469 8.07214,-1.47843 1.43565,1.72986 0.19317,3.64717 -3.73618,5.76538 -4.52459,2.43908 -4.62721,2.58281 -5.21757,7.3079 -0.25877,2.07108 -0.7886,3.9622 -1.17741,4.2025 -0.38881,0.2403 -1.89536,0.0447 -3.34789,-0.43469 -2.18212,-0.72016 -3.08952,-0.68417 -5.22276,0.20715 -1.41999,0.59331 -2.71548,0.94506 -2.87888,0.78167 l 0,0 z"
           style="fill:#000080;fill-opacity:1" />
        <path
           transform="matrix(1.6622899,0,0,1.5194732,-241.45801,-172.79355)"
           inkscape:connector-curvature="0"
           id="path3134"
           d="m 287.61322,299.19356 c -1.92705,-1.92705 0.14218,-5.57143 3.16339,-5.57143 3.17708,0 4.17754,3.46561 1.53482,5.31664 -1.90094,1.33147 -3.53301,1.41998 -4.69821,0.25479 z"
           style="fill:#000080;fill-opacity:1" />
        <path
           transform="matrix(1.6622899,0,0,1.5194732,-241.45801,-172.79355)"
           inkscape:connector-curvature="0"
           id="path3136"
           d="m 313.1671,286.10098 c -2.1417,-2.58059 2.76618,-6.78658 5.38397,-4.61401 1.43929,1.19451 1.33683,3.09374 -0.24409,4.52446 -1.63526,1.47988 -3.9525,1.52026 -5.13988,0.0895 z"
           style="fill:#000080;fill-opacity:1" />
        <path
           transform="matrix(1.6622899,0,0,1.5194732,-241.45801,-172.79355)"
           inkscape:connector-curvature="0"
           id="path3138"
           d="m 309.56021,311.42626 c -1.80498,-1.80498 -1.73778,-2.41552 0.45577,-4.14097 2.21555,-1.74275 4.83453,-1.09891 5.18779,1.27533 0.48226,3.2413 -3.33142,5.17778 -5.64356,2.86564 z"
           style="fill:#000080;fill-opacity:1" />
        <path
           transform="matrix(1.6622899,0,0,1.5194732,-241.45801,-172.79355)"
           inkscape:connector-curvature="0"
           id="path3140"
           d="m 303.47579,324.50851 0.47573,-4.8279 -3.61038,-2.6954 c -3.80258,-2.83889 -3.96708,-3.82836 -1.04027,-6.2574 1.04229,-0.86502 1.84236,-0.6511 6.289,1.68156 2.80213,1.46996 5.51969,2.66561 6.03902,2.657 0.51933,-0.009 2.34046,-0.83391 4.04695,-1.83398 4.21562,-2.47052 7.5007,-3.36334 8.70321,-2.36535 1.92075,1.59408 1.00179,3.453 -2.95976,5.98718 -4.48033,2.86603 -5.04279,3.69029 -5.75376,8.43186 -0.59283,3.95364 -1.59943,4.66082 -4.20454,2.95389 -1.70382,-1.11639 -2.05057,-1.12038 -4.71501,-0.0543 -1.58178,0.6329 -3.07169,1.15073 -3.31093,1.15073 -0.23924,0 -0.22091,-2.17256 0.0407,-4.82791 z"
           style="fill:#000080;fill-opacity:1" />
        <path
           transform="matrix(1.6622899,0,0,1.5194732,-241.45801,-172.79355)"
           inkscape:connector-curvature="0"
           id="path3142"
           d="m 277.82838,337.01576 c 0.47752,-5.15212 0.4693,-5.18563 -1.56536,-6.3756 -3.20587,-1.87496 -4.699,-3.85906 -4.16657,-5.53661 0.85114,-2.6817 3.69444,-2.64305 8.77916,0.11933 l 4.63719,2.51925 5.30407,-2.41714 c 5.88117,-2.68014 7.48468,-2.92619 8.79338,-1.34929 1.34812,1.62438 -0.56908,4.00106 -4.84191,6.00235 -3.59957,1.68595 -3.59967,1.68609 -4.4721,6.41503 -0.47984,2.60098 -1.00854,4.96856 -1.17489,5.2613 -0.16634,0.29274 -1.47523,-0.0694 -2.90863,-0.8048 -2.54737,-1.30689 -2.6768,-1.30679 -5.73528,0.004 l -3.1291,1.34129 0.48004,-5.17934 0,2e-5 z"
           style="fill:#000080;fill-opacity:1" />
        <path
           transform="matrix(1.6622899,0,0,1.5194732,-241.45801,-172.79355)"
           inkscape:connector-curvature="0"
           id="path3144"
           d="m 284.04179,324.19356 c -2.09007,-2.09008 -0.10776,-5.50086 3.22487,-5.54871 2.51174,-0.0361 3.3203,2.31193 1.56471,4.5438 -1.5728,1.99949 -3.40961,2.38488 -4.78958,1.00491 z"
           style="fill:#000080;fill-opacity:1" />
        <path
           transform="matrix(1.6622899,0,0,1.5194732,-241.45801,-172.79355)"
           inkscape:connector-curvature="0"
           id="path3146"
           d="m 255.73654,324.15784 0.39082,-5.17857 -3.25707,-2.02025 c -3.50801,-2.17592 -4.06554,-3.81239 -1.95082,-5.72618 1.82912,-1.65534 2.59467,-1.52028 7.7617,1.36929 l 4.56238,2.55143 5.94034,-2.55143 c 6.70744,-2.8809 7.06842,-2.94767 8.24858,-1.52566 1.33039,1.60302 -0.21886,3.7038 -4.52261,6.13269 l -3.78357,2.13532 -0.89283,4.99597 c -0.49106,2.74778 -1.21583,4.99597 -1.61061,4.99597 -0.39478,0 -1.64215,-0.54604 -2.77194,-1.21342 -1.93275,-1.14171 -2.20455,-1.14171 -4.59873,0 -1.39951,0.66738 -2.85099,1.21342 -3.22551,1.21342 -0.40505,0 -0.5226,-2.09813 -0.29013,-5.17858 z"
           style="fill:#000080;fill-opacity:1" />
        <path
           transform="matrix(1.6622899,0,0,1.5194732,-241.45801,-172.79355)"
           inkscape:connector-curvature="0"
           id="path3148"
           d="m 261.31611,311.16385 c -1.16271,-3.02997 2.54362,-6.23466 5.42632,-4.69188 1.73112,0.92647 1.81772,2.01047 0.33029,4.13408 -1.28232,1.83078 -5.12523,2.20314 -5.75661,0.5578 z"
           style="fill:#000080;fill-opacity:1" />
      </g>
    </g>
  </g>
</svg>
