<?xml version="1.0" encoding="iso-8859-1"?>
<!-- Generator: Adobe Illustrator 19.0.0, SVG Export Plug-In . SVG Version: 6.00 Build 0)  -->
<svg version="1.1" id="Layer_1" xmlns="http://www.w3.org/2000/svg" xmlns:xlink="http://www.w3.org/1999/xlink" x="0px" y="0px"
	 viewBox="0 0 512 512" style="enable-background:new 0 0 512 512;" xml:space="preserve">
<path style="fill:#00D2B9;" d="M37.926,0h436.148C495.02,0,512,16.98,512,37.926v436.148C512,495.02,495.02,512,474.074,512H37.926
	C16.98,512,0,495.02,0,474.074V37.926C0,16.98,16.98,0,37.926,0z"/>
<circle style="fill:#00AA9A;" cx="365.037" cy="147.745" r="85.333"/>
<path style="fill:#AAE1FF;" d="M286.799,440.135h156.474c7.333,0,11.891-7.968,8.172-14.289l-78.238-133.004
	c-3.666-6.232-12.679-6.232-16.345,0l-78.238,133.004C274.908,432.167,279.465,440.135,286.799,440.135z"/>
<path style="fill:#FFC855;" d="M149.148,209.491l-44.113,23.192c-7.821,4.111-16.961-2.529-15.468-11.238l8.424-49.12
	l-35.687-34.786c-6.328-6.168-2.836-16.913,5.908-18.183l49.319-7.167l22.056-44.691c3.91-7.923,15.208-7.923,19.119,0
	l22.056,44.691l49.319,7.167c8.744,1.271,12.236,12.015,5.908,18.183l-35.687,34.786l8.424,49.12
	c1.493,8.709-7.647,15.349-15.468,11.238L149.148,209.491z"/>
<path style="fill:#00BED2;" d="M56.009,370.439l91.463,91.463c0.926,0.926,2.426,0.926,3.352,0l91.463-91.463
	c0.926-0.926,0.926-2.426,0-3.352l-91.463-91.463c-0.926-0.926-2.426-0.926-3.352,0l-91.463,91.463
	C55.084,368.013,55.084,369.513,56.009,370.439z"/>
<circle style="fill:#FF6472;" cx="365.037" cy="147.745" r="85.333"/>
<path style="fill:#FFC855;" d="M149.148,209.491l44.113,23.192c7.821,4.111,16.961-2.529,15.468-11.238l-8.424-49.12l35.687-34.786
	c6.328-6.168,2.836-16.913-5.908-18.183l-49.319-7.167l-22.056-44.691c-3.91-7.923-15.208-7.923-19.119,0l-22.056,44.691
	l-49.319,7.167c-8.744,1.271-12.236,12.015-5.908,18.183l35.687,34.786l-8.424,49.12c-1.493,8.709,7.647,15.349,15.468,11.238
	L149.148,209.491z"/>
<path style="fill:#00BEA9;" d="M88.231,239.546c-6.241-4.537-9.314-12.083-8.009-19.704l7.583-44.213l-32.121-31.305
	c-5.528-5.389-7.482-13.297-5.093-20.639c2.38-7.342,8.612-12.602,16.26-13.713l44.389-6.453l19.852-40.213
	c3.407-6.926,10.334-11.232,18.055-11.232s14.648,4.306,18.055,11.232l19.861,40.213l44.389,6.453
	c7.639,1.112,13.87,6.37,16.25,13.713c2.389,7.342,0.435,15.25-5.093,20.639l-32.121,31.305l7.586,44.213
	c1.306,7.621-1.768,15.167-8.009,19.704c-6.259,4.537-14.37,5.129-21.222,1.528l-39.694-20.87l-39.704,20.87
	c-2.972,1.564-6.185,2.343-9.389,2.343C95.898,243.417,91.769,242.111,88.231,239.546z M197.666,224.296
	c0.194,0.092,0.648,0.333,1.25-0.092c0.593-0.435,0.51-0.945,0.472-1.158l-9.268-54.028l39.25-38.268
	c0.158-0.158,0.527-0.51,0.296-1.212c-0.223-0.695-0.741-0.768-0.945-0.806l-54.249-7.879l-24.269-49.158
	c-0.204-0.389-1.907-0.389-2.111,0l-24.26,49.158l-54.249,7.879c-0.213,0.037-0.731,0.111-0.954,0.806
	c-0.231,0.704,0.139,1.056,0.296,1.212l39.25,38.268l-9.268,54.028c-0.037,0.213-0.121,0.722,0.472,1.158
	c0.602,0.435,1.056,0.194,1.241,0.092l48.527-25.518L197.666,224.296z"/>
<path style="fill:#E15050;" d="M56.009,370.439l91.463,91.463c0.926,0.926,2.426,0.926,3.352,0l91.463-91.463
	c0.926-0.926,0.926-2.426,0-3.352l-91.463-91.463c-0.926-0.926-2.426-0.926-3.352,0l-91.463,91.463
	C55.084,368.013,55.084,369.513,56.009,370.439z"/>
<path style="fill:#FFB44B;" d="M129.444,170.43L97.12,138.914c-0.129-0.129-0.435-0.42-0.244-0.999
	c0.184-0.571,0.61-0.633,0.777-0.664l44.677-6.49l18.516-37.504l-10.642-21.564c-0.204-0.389-1.907-0.389-2.111,0l-24.269,49.158
	l-54.249,7.879c-0.204,0.037-0.722,0.111-0.945,0.806c-0.231,0.704,0.139,1.056,0.296,1.212l39.25,38.268l-9.268,54.028
	c-0.037,0.213-0.121,0.722,0.472,1.158c0.602,0.425,1.056,0.185,1.25,0.092l21.515-11.315L129.444,170.43z"/>
<path style="fill:#D24146;" d="M67.743,382.172l67.998,67.998c7.405,7.406,19.412,7.406,26.817,0l6.018-6.018l-68.684-68.683
	c-3.703-3.704-3.703-9.705,0-13.409l68.684-68.683l-6.018-6.018c-7.406-7.406-19.412-7.406-26.817,0l-67.998,67.998
	C60.337,362.76,60.337,374.766,67.743,382.172z"/>
<path style="fill:#00BEA9;" d="M149.148,272.343c7.287,0,14.565,2.769,20.111,8.315l68,67.991c11.092,11.092,11.092,29.139,0,40.231
	l-68,67.991c-11.092,11.092-29.129,11.092-40.223,0l-68-67.991c-11.092-11.092-11.092-29.139,0-40.231l68-67.991
	C134.584,275.111,141.861,272.343,149.148,272.343z M149.148,446.232c2.426,0,4.852-0.916,6.703-2.769l68-67.991
	c3.694-3.704,3.694-9.713,0-13.416l-68-67.992c-3.704-3.685-9.704-3.704-13.408,0l-68,67.991c-3.694,3.704-3.694,9.713,0,13.416
	l68,67.991C144.296,445.306,146.722,446.232,149.148,446.232z"/>
<path style="fill:#8CD2FF;" d="M278.626,425.845l78.238-133.003c3.666-6.233,12.679-6.233,16.345,0l9.62,16.354l-68.617,116.648
	c-3.718,6.321,0.839,14.289,8.173,14.289h-35.585C279.465,440.134,274.908,432.167,278.626,425.845z"/>
<path style="fill:#00BEA9;" d="M443.277,449.62H286.795c-6.889,0-13.037-3.574-16.463-9.547c-3.417-5.982-3.371-13.102,0.129-19.038
	l78.222-133c3.444-5.852,9.556-9.352,16.352-9.352c6.796,0,12.908,3.5,16.352,9.352l78.232,133
	c3.49,5.935,3.537,13.056,0.121,19.038C456.314,446.047,450.165,449.62,443.277,449.62z M365.036,297.649l-78.232,133l156.519,0.009
	L365.036,297.649z"/>
<path style="fill:#DC5869;" d="M365.037,233.082c5.681,0,11.223-0.582,16.593-1.641c-39.182-7.726-68.741-42.245-68.741-83.692
	c0-41.448,29.559-75.967,68.741-83.692c-5.37-1.06-10.912-1.641-16.593-1.641c-47.129,0-85.333,38.204-85.333,85.333
	C279.704,194.876,317.908,233.082,365.037,233.082z"/>
<path style="fill:#00BEA9;" d="M365.037,52.935c52.277,0,94.815,42.537,94.815,94.815s-42.537,94.815-94.815,94.815
	s-94.815-42.537-94.815-94.815S312.76,52.935,365.037,52.935z M365.037,223.602c41.824,0,75.852-34.028,75.852-75.852
	s-34.028-75.852-75.852-75.852s-75.852,34.028-75.852,75.852S323.213,223.602,365.037,223.602z"/>
<g>
</g>
<g>
</g>
<g>
</g>
<g>
</g>
<g>
</g>
<g>
</g>
<g>
</g>
<g>
</g>
<g>
</g>
<g>
</g>
<g>
</g>
<g>
</g>
<g>
</g>
<g>
</g>
<g>
</g>
</svg>
